<svg width="24" height="24" viewBox="0 0 24 24" fill="none" xmlns="http://www.w3.org/2000/svg">
<path fill-rule="evenodd" clip-rule="evenodd" d="M12.9172 4.52538C12.5095 3.81934 11.4905 3.81934 11.0828 4.52538L1.91105 20.4114C1.50341 21.1174 2.01295 22 2.82822 22H21.1718C21.9871 22 22.4966 21.1174 22.089 20.4114L12.9172 4.52538ZM19.5 20L12 6.50001L4.5 20H19.5ZM13 18C13 18.5523 12.5523 19 12 19C11.4477 19 11 18.5523 11 18C11 17.4477 11.4477 17 12 17C12.5523 17 13 17.4477 13 18ZM12 16C12.5523 16 13 15.5523 13 15V11C13 10.4477 12.5523 10 12 10C11.4477 10 11 10.4477 11 11V15C11 15.5523 11.4477 16 12 16Z" fill="white" fill-opacity="0.3"/>
</svg>
