<svg width="20" height="20" viewBox="0 0 20 20" fill="none" xmlns="http://www.w3.org/2000/svg">
<path fill-rule="evenodd" clip-rule="evenodd" d="M16.6665 3.33334V13.3333H6.6665V3.33334H16.6665ZM16.6665 1.66667H6.6665C5.74984 1.66667 4.99984 2.41667 4.99984 3.33334V13.3333C4.99984 14.25 5.74984 15 6.6665 15H16.6665C17.5832 15 18.3332 14.25 18.3332 13.3333V3.33334C18.3332 2.41667 17.5832 1.66667 16.6665 1.66667ZM9.58317 9.72501L10.9915 11.6083L13.0582 9.025L15.8332 12.5H7.49984L9.58317 9.72501ZM1.6665 5.00001V16.6667C1.6665 17.5833 2.4165 18.3333 3.33317 18.3333H14.9998V16.6667H3.33317V5.00001H1.6665Z" fill="white"/>
</svg>
