<svg width="24" height="24" viewBox="0 0 24 24" fill="none" xmlns="http://www.w3.org/2000/svg">
<path fill-rule="evenodd" clip-rule="evenodd" d="M21 5H3C1.89 5 1 5.9 1 7V17C1 18.1 1.89 19 3 19H21C22.1 19 23 18.1 23 17V7C23 5.9 22.1 5 21 5ZM6.33445 16V8H7.90945C8.50612 8 8.93779 8.125 9.20445 8.375C9.47445 8.625 9.61945 9.04 9.63945 9.62C9.65279 9.98333 9.65945 10.3133 9.65945 10.61C9.65945 10.9067 9.65279 11.2183 9.63945 11.545C9.61945 12.1217 9.47445 12.5367 9.20445 12.79C8.93779 13.04 8.50445 13.165 7.90445 13.165H7.41445V16H6.33445ZM7.41445 12.205H7.90445C8.12112 12.205 8.28112 12.155 8.38445 12.055C8.49112 11.9517 8.54945 11.8 8.55945 11.6C8.56945 11.3867 8.57612 11.1633 8.57945 10.93C8.58279 10.6967 8.58279 10.465 8.57945 10.235C8.57612 10.0017 8.56945 9.77833 8.55945 9.565C8.54945 9.36167 8.49279 9.21 8.38945 9.11C8.28612 9.01 8.12612 8.96 7.90945 8.96H7.41445V12.205ZM10.3677 16V8H12.0227C12.626 8 13.0627 8.13167 13.3327 8.395C13.6027 8.655 13.7427 9.08667 13.7527 9.69C13.7627 10.24 13.7693 10.7617 13.7727 11.255C13.776 11.7483 13.776 12.2433 13.7727 12.74C13.7693 13.2333 13.7627 13.755 13.7527 14.305C13.7427 14.9083 13.6027 15.3417 13.3327 15.605C13.0627 15.8683 12.6243 16 12.0177 16H10.3677ZM11.4477 15.04H12.0177C12.2377 15.04 12.401 14.99 12.5077 14.89C12.6143 14.7867 12.6693 14.6317 12.6727 14.425C12.6827 14.0183 12.6893 13.6133 12.6927 13.21C12.696 12.8033 12.6977 12.3983 12.6977 11.995C12.6977 11.5917 12.696 11.1883 12.6927 10.785C12.6893 10.3783 12.6827 9.97167 12.6727 9.565C12.6693 9.36167 12.6143 9.21 12.5077 9.11C12.401 9.01 12.2393 8.96 12.0227 8.96H11.4477V15.04ZM14.645 8V16H15.725V12.43H17.4V11.47H15.725V8.96H17.5V8H14.645Z" fill="#F8FBFC"/>
</svg>
