<svg width="20" height="20" viewBox="0 0 20 20" fill="none" xmlns="http://www.w3.org/2000/svg">
<path fill-rule="evenodd" clip-rule="evenodd" d="M16.6665 1.66667H6.6665C5.74984 1.66667 4.99984 2.41667 4.99984 3.33334V13.3333C4.99984 14.25 5.74984 15 6.6665 15H16.6665C17.5832 15 18.3332 14.25 18.3332 13.3333V3.33334C18.3332 2.41667 17.5832 1.66667 16.6665 1.66667ZM16.6665 13.3333H6.6665V3.33334H16.6665V13.3333ZM3.33317 5.00001H1.6665V16.6667C1.6665 17.5833 2.4165 18.3333 3.33317 18.3333H14.9998V16.6667H3.33317V5.00001ZM13.3332 10V7.50001C13.3332 7.04167 12.9582 6.66667 12.4998 6.66667H10.8332V10.8333H12.4998C12.9582 10.8333 13.3332 10.4583 13.3332 10ZM11.6665 7.50001H12.4998V10H11.6665V7.50001ZM14.9998 9.16667H15.8332V8.33334H14.9998V7.50001H15.8332V6.66667H14.1665V10.8333H14.9998V9.16667ZM8.33317 9.16667H9.1665C9.62484 9.16667 9.99984 8.79167 9.99984 8.33334V7.50001C9.99984 7.04167 9.62484 6.66667 9.1665 6.66667H7.49984V10.8333H8.33317V9.16667ZM8.33317 7.50001H9.1665V8.33334H8.33317V7.50001Z" fill="white"/>
</svg>
