<svg width="116" height="20" viewBox="0 0 116 20" fill="none" xmlns="http://www.w3.org/2000/svg">
<path fill-rule="evenodd" clip-rule="evenodd" d="M9.99984 14.3917L15.1498 17.5L13.7832 11.6417L18.3332 7.7L12.3415 7.19167L9.99984 1.66667L7.65817 7.19167L1.6665 7.7L6.2165 11.6417L4.84984 17.5L9.99984 14.3917Z" fill="white"/>
<path fill-rule="evenodd" clip-rule="evenodd" d="M33.9998 14.3917L39.1498 17.5L37.7832 11.6417L42.3332 7.7L36.3415 7.19167L33.9998 1.66667L31.6582 7.19167L25.6665 7.7L30.2165 11.6417L28.8498 17.5L33.9998 14.3917Z" fill="white"/>
<path fill-rule="evenodd" clip-rule="evenodd" d="M57.9998 14.3917L63.1498 17.5L61.7832 11.6417L66.3332 7.7L60.3415 7.19167L57.9998 1.66667L55.6582 7.19167L49.6665 7.7L54.2165 11.6417L52.8498 17.5L57.9998 14.3917Z" fill="white"/>
<path fill-rule="evenodd" clip-rule="evenodd" d="M90.3332 7.7L84.3415 7.18334L81.9998 1.66667L79.6582 7.19167L73.6665 7.7L78.2165 11.6417L76.8498 17.5L81.9998 14.3917L87.1498 17.5L85.7915 11.6417L90.3332 7.7ZM81.9998 12.8333V5.08334L83.4248 8.45001L87.0748 8.76667L84.3082 11.1667L85.1415 14.7333L81.9998 12.8333Z" fill="white"/>
<path fill-rule="evenodd" clip-rule="evenodd" d="M114.333 7.7L108.342 7.18334L106 1.66667L103.658 7.19167L97.6665 7.7L102.217 11.6417L100.85 17.5L106 14.3917L111.15 17.5L109.792 11.6417L114.333 7.7ZM106 12.8333L102.867 14.725L103.7 11.1583L100.933 8.75834L104.583 8.44167L106 5.08334L107.425 8.45001L111.075 8.76667L108.308 11.1667L109.142 14.7333L106 12.8333Z" fill="white"/>
</svg>
