<svg width="246" height="24" viewBox="0 0 246 24" fill="none" xmlns="http://www.w3.org/2000/svg">
<path d="M0.4 23V0.599998H21.424V23H15.152V4.216L16.56 5.624H5.264L6.64 4.216V23H0.4ZM27.2125 23V0.599998H37.4525C39.5005 0.599998 41.2605 0.930665 42.7325 1.592C44.2258 2.25333 45.3778 3.21333 46.1885 4.472C46.9992 5.70933 47.4045 7.18133 47.4045 8.888C47.4045 10.5733 46.9992 12.0347 46.1885 13.272C45.3778 14.5093 44.2258 15.4693 42.7325 16.152C41.2605 16.8133 39.5005 17.144 37.4525 17.144H30.7325L33.5485 14.392V23H27.2125ZM33.5485 15.064L30.7325 12.152H37.0685C38.3912 12.152 39.3725 11.864 40.0125 11.288C40.6738 10.712 41.0045 9.912 41.0045 8.888C41.0045 7.84267 40.6738 7.032 40.0125 6.456C39.3725 5.88 38.3912 5.592 37.0685 5.592H30.7325L33.5485 2.68V15.064ZM51.275 23V0.599998H57.515V13.752L66.763 0.599998H72.715V23H66.475V9.88L57.259 23H51.275ZM89.437 23.448C87.6663 23.448 86.0237 23.1707 84.509 22.616C83.0157 22.04 81.7143 21.2293 80.605 20.184C79.517 19.1387 78.6637 17.912 78.045 16.504C77.4263 15.0747 77.117 13.5067 77.117 11.8C77.117 10.0933 77.4263 8.536 78.045 7.128C78.6637 5.69867 79.517 4.46133 80.605 3.416C81.7143 2.37067 83.0157 1.57067 84.509 1.016C86.0237 0.439999 87.6663 0.151999 89.437 0.151999C91.5063 0.151999 93.3517 0.514666 94.973 1.24C96.6157 1.96533 97.981 3.01067 99.069 4.376L95.037 8.024C94.3117 7.17067 93.5117 6.52 92.637 6.072C91.7837 5.624 90.8237 5.4 89.757 5.4C88.8397 5.4 87.997 5.54933 87.229 5.848C86.461 6.14667 85.7997 6.584 85.245 7.16C84.7117 7.71467 84.285 8.38667 83.965 9.176C83.6663 9.96533 83.517 10.84 83.517 11.8C83.517 12.76 83.6663 13.6347 83.965 14.424C84.285 15.2133 84.7117 15.896 85.245 16.472C85.7997 17.0267 86.461 17.4533 87.229 17.752C87.997 18.0507 88.8397 18.2 89.757 18.2C90.8237 18.2 91.7837 17.976 92.637 17.528C93.5117 17.08 94.3117 16.4293 95.037 15.576L99.069 19.224C97.981 20.568 96.6157 21.6133 94.973 22.36C93.3517 23.0853 91.5063 23.448 89.437 23.448ZM107.704 23V4.216L109.112 5.624H100.824V0.599998H120.792V5.624H112.536L113.944 4.216V23H107.704ZM124.713 23V0.599998H134.953C137.001 0.599998 138.761 0.930665 140.233 1.592C141.726 2.25333 142.878 3.21333 143.689 4.472C144.499 5.70933 144.905 7.18133 144.905 8.888C144.905 10.5733 144.499 12.0347 143.689 13.272C142.878 14.5093 141.726 15.4693 140.233 16.152C138.761 16.8133 137.001 17.144 134.953 17.144H128.233L131.049 14.392V23H124.713ZM131.049 15.064L128.233 12.152H134.569C135.891 12.152 136.873 11.864 137.513 11.288C138.174 10.712 138.505 9.912 138.505 8.888C138.505 7.84267 138.174 7.032 137.513 6.456C136.873 5.88 135.891 5.592 134.569 5.592H128.233L131.049 2.68V15.064ZM154.599 9.272H164.999V14.008H154.599V9.272ZM155.047 18.104H166.759V23H148.775V0.599998H166.343V5.496H155.047V18.104ZM172.297 23.384C171.87 23.384 171.411 23.352 170.921 23.288C170.451 23.224 169.95 23.128 169.417 23L169.769 17.816C170.067 17.88 170.355 17.912 170.633 17.912C171.507 17.912 172.169 17.5707 172.617 16.888C173.065 16.184 173.374 15.2027 173.545 13.944C173.737 12.6853 173.854 11.2133 173.897 9.528L174.217 0.599998H192.265V23H186.025V4.216L187.401 5.624H178.345L179.625 4.152L179.465 9.272C179.401 11.448 179.251 13.4107 179.017 15.16C178.782 16.888 178.409 18.3707 177.897 19.608C177.385 20.824 176.67 21.7627 175.753 22.424C174.857 23.064 173.705 23.384 172.297 23.384ZM212.2 23L205.896 12.344L210.984 9.336L219.336 23H212.2ZM197.928 23V0.599998H204.232V23H197.928ZM202.408 14.424V9.304H210.536V14.424H202.408ZM211.592 12.472L205.736 11.832L212.616 0.599998H219.272L211.592 12.472ZM219.598 23L229.486 0.599998H235.726L245.646 23H239.054L231.31 3.704H233.806L226.062 23H219.598ZM225.006 18.648L226.638 13.976H237.582L239.214 18.648H225.006Z" fill="#EF8100"/>
</svg>
